<svg width="200" height="200" viewBox="0 0 200 200" fill="none" xmlns="http://www.w3.org/2000/svg">
<path d="M8.97 34.5V26.22H40.71H72.68L73.6 26.68C74.06 26.8333 87.63 43.3167 114.31 76.13C141.45 109.557 154.79 126.04 154.33 125.58L155.02 126.27V84.64V42.78H142.6H130.18V34.5V26.22H132.48L149.27 26.68C159.083 26.8333 168.897 26.8333 178.71 26.68C189.75 26.3733 195.347 26.22 195.5 26.22H197.8V34.5V42.78H185.38H172.96V111.78C172.96 157.627 172.807 180.857 172.5 181.47C172.193 182.39 171.58 183.08 170.66 183.54C170.047 183.847 167.823 184 163.99 184C160.157 184 157.933 183.847 157.32 183.54C157.013 183.387 139.457 161.997 104.65 119.37C69.5367 75.67 52.1333 54.1267 52.44 54.74L51.75 54.05V110.63V167.44H64.17H76.59V175.72V184H74.29C74.4433 184 68.8467 183.847 57.5 183.54C47.6867 183.387 37.8733 183.387 28.06 183.54C16.7133 183.847 11.1167 184 11.27 184H8.97V175.72V167.44H21.39H33.81V105.11V42.78H21.39H8.97V34.5Z" fill="#0085FF"/>
<path d="M99.7326 79.9592C99.7545 79.9687 99.8203 80.0388 99.93 80.1695C100.03 80.3221 100.093 80.4223 100.12 80.47C100.289 80.871 100.293 81.2575 100.132 81.6295C100.038 81.8333 99.9178 81.9969 99.7707 82.1203C99.6154 82.2506 99.4334 82.3407 99.2246 82.3905C98.8221 82.4916 98.4381 82.4239 98.0726 82.1875C97.9946 82.1277 97.9007 82.0324 97.791 81.9017C97.6744 81.7628 97.5969 81.6538 97.5584 81.5747C97.3822 81.1656 97.3788 80.7716 97.5482 80.3927C97.6241 80.2176 97.7479 80.0581 97.9195 79.9141C98.0339 79.8181 98.119 79.7536 98.1749 79.7207C98.3563 79.6381 98.5569 79.5951 98.7767 79.5916C99.125 79.5918 99.4436 79.7143 99.7326 79.9592ZM96.621 82.424C97.3393 83.2136 97.6847 83.5921 97.6573 83.5595L97.719 83.633L95.4025 85.5768L93.086 87.5206L93.4048 87.9005L93.7236 88.2805L93.2824 88.6507L92.8411 89.021L92.7486 88.9107L92.1149 88.1057C91.7459 87.6494 91.3551 87.1836 90.9424 86.7084L90.2186 85.8955L90.126 85.7852L90.5672 85.4149L91.0085 85.0447L91.3685 85.4737L91.7181 85.8904L93.3973 84.4814C94.5331 83.5284 95.1139 83.0341 95.1397 82.9985C95.2104 82.8835 95.223 82.7824 95.1776 82.6952C95.1143 82.5533 94.9935 82.3762 94.8153 82.1638L94.6919 82.0167L95.1331 81.6464L95.5743 81.2762L95.6052 81.313L96.621 82.424ZM102.374 84.7255L102.448 84.6638L102.818 85.1051L103.188 85.5463L102.024 86.5234L100.847 87.5107L101.537 88.3319L102.226 89.1531L101.784 89.5233L101.343 89.8936L100.654 89.0724L99.9649 88.2512L98.298 89.6499C97.1528 90.6248 96.5536 91.1554 96.5007 91.2416C96.4925 91.2484 96.4783 91.2813 96.458 91.3401C96.4011 91.4714 96.3892 91.6066 96.4225 91.7458C96.4404 91.8004 96.4837 91.8685 96.5522 91.9502C96.6208 92.0319 96.6735 92.0782 96.7104 92.089C96.8692 92.1786 97.106 92.1539 97.4211 92.0149C97.492 91.9832 97.6779 91.8481 97.9789 91.6094L98.4079 91.2494L98.7782 91.6907L99.1484 92.1319L98.7562 92.461C98.413 92.749 98.1357 92.933 97.9243 93.0129C97.5792 93.1493 97.2126 93.1853 96.8246 93.1211C96.394 93.0229 96.0205 92.835 95.7041 92.5574C95.6342 92.4907 95.5239 92.3675 95.373 92.1878C95.1001 91.8459 94.9194 91.531 94.8311 91.2431C94.6947 90.8981 94.673 90.5403 94.766 90.1699C94.836 89.8883 94.9969 89.6071 95.2486 89.3263C95.2826 89.2838 95.8471 88.8032 96.942 87.8845L98.5354 86.5475L98.1857 86.1307L97.8258 85.7018L98.1935 85.3932L98.5734 85.0744L98.666 85.1847C98.9099 85.4256 99.1952 85.5831 99.5219 85.6571C100.198 85.7996 100.936 85.6332 101.735 85.1579C101.99 85.0137 102.203 84.8695 102.374 84.7255ZM107.444 89.2493C108.163 90.039 108.515 90.4256 108.501 90.4093L108.563 90.4828L106.651 92.0872L104.727 93.7019L104.862 93.7137C105.373 93.7584 105.844 93.9132 106.275 94.1781C106.534 94.337 106.74 94.4838 106.895 94.6185C107.099 94.7953 107.34 95.0738 107.617 95.4539C107.636 95.4934 107.656 95.5255 107.677 95.55C108.131 96.2409 108.222 96.8886 107.95 97.4932C107.893 97.6245 107.779 97.7963 107.609 98.0085C107.533 98.1003 106.959 98.6028 105.887 99.516L104.282 100.863L104.642 101.292L104.991 101.709L104.55 102.079L104.109 102.449L104.016 102.339C104.023 102.347 103.795 102.059 103.331 101.473C102.928 100.976 102.517 100.485 102.097 100.002L101.353 99.1647L101.26 99.0544L101.701 98.6841L102.143 98.3139L102.503 98.7429L102.852 99.1596L104.384 97.874C105.447 96.9827 105.999 96.5124 106.041 96.4631C106.423 96.0725 106.505 95.7049 106.285 95.3601C106.237 95.3029 106.182 95.2375 106.121 95.164C105.767 94.7923 105.335 94.5842 104.824 94.5395C104.463 94.5079 104.137 94.5589 103.845 94.6923C103.665 94.7599 103.293 95.0302 102.729 95.5033C102.631 95.5855 102.46 95.7295 102.214 95.9352L101.001 96.9534L101.361 97.3824L101.711 97.7991L101.269 98.1693L100.828 98.5396L100.736 98.4293L100.04 97.5507C99.637 97.0536 99.2256 96.5633 98.806 96.0799C98.3097 95.5216 98.065 95.2466 98.0719 95.2548L97.9793 95.1445L98.4206 94.7742L98.8618 94.404L99.2218 94.833L99.5714 95.2497L102.758 92.5757C104.883 90.793 105.959 89.8764 105.986 89.8258C106.047 89.7327 106.055 89.635 106.011 89.5327C105.948 89.3909 105.824 89.2097 105.639 88.9891L105.505 88.8297L105.946 88.4595L106.387 88.0893L106.418 88.126C106.384 88.0852 106.726 88.4596 107.444 89.2493ZM114.185 97.1833C114.207 97.1927 114.273 97.2629 114.383 97.3936C114.483 97.5462 114.546 97.6464 114.572 97.6941C114.741 98.0951 114.746 98.4815 114.584 98.8536C114.491 99.0574 114.37 99.221 114.223 99.3444C114.068 99.4747 113.886 99.5648 113.677 99.6146C113.275 99.7157 112.891 99.648 112.525 99.4116C112.447 99.3518 112.353 99.2565 112.244 99.1258C112.127 98.9869 112.05 98.8779 112.011 98.7988C111.835 98.3897 111.831 97.9957 112.001 97.6168C112.077 97.4417 112.2 97.2822 112.372 97.1382C112.486 97.0422 112.572 96.9777 112.628 96.9448C112.809 96.8622 113.009 96.8192 113.229 96.8157C113.578 96.8159 113.896 96.9384 114.185 97.1833ZM111.074 99.648C111.792 100.438 112.137 100.816 112.11 100.784L112.172 100.857L109.855 102.801L107.539 104.745L107.857 105.125L108.176 105.505L107.735 105.875L107.294 106.245L107.201 106.135L106.567 105.33C106.199 104.873 105.808 104.408 105.395 103.932L104.671 103.12L104.579 103.009L105.02 102.639L105.461 102.269L105.821 102.698L106.171 103.114L107.85 101.706C108.986 100.752 109.567 100.258 109.592 100.223C109.663 100.108 109.676 100.006 109.63 99.9192C109.567 99.7774 109.446 99.6003 109.268 99.3878L109.144 99.2408L109.586 98.8705L110.027 98.5003L110.058 98.537L111.074 99.648ZM115.007 104.187L115.655 104.959C115.864 105.257 116.01 105.531 116.094 105.781L116.142 105.887L116.413 106.036L116.696 106.174L116.809 106.309C116.884 106.399 116.924 106.463 116.929 106.501C116.937 106.578 116.879 106.675 116.755 106.793C116.682 106.854 116.506 107.002 116.228 107.235C115.763 107.626 115.485 107.81 115.396 107.787C115.353 107.768 115.245 107.656 115.074 107.452C114.902 107.248 114.811 107.122 114.8 107.076C114.793 106.984 114.822 106.911 114.887 106.856C115.141 106.644 115.225 106.371 115.141 106.038C115.074 105.76 114.9 105.453 114.619 105.118C114.352 104.799 114.106 104.581 113.881 104.463C113.613 104.326 113.373 104.347 113.161 104.525C113.128 104.552 113.098 104.591 113.071 104.642C112.985 104.756 112.971 104.921 113.027 105.138C113.058 105.307 113.224 105.662 113.525 106.203C113.808 106.69 113.997 107.04 114.092 107.252C114.332 107.887 114.374 108.485 114.219 109.047C114.127 109.319 114.011 109.555 113.873 109.755C113.805 109.839 113.689 109.95 113.526 110.088C113.354 110.232 113.221 110.33 113.125 110.382C112.464 110.756 111.799 110.785 111.13 110.469C110.839 110.337 110.536 110.125 110.22 109.833C110.164 109.782 110.023 109.622 109.797 109.353C109.55 109.058 109.355 108.776 109.212 108.506C109.13 108.325 109.063 108.137 109.011 107.944L108.96 107.757L108.566 107.587L108.149 107.414L108.046 107.291C107.964 107.193 107.921 107.125 107.917 107.087C107.9 107.017 107.95 106.927 108.065 106.816C108.147 106.748 108.38 106.552 108.764 106.23C109.328 105.757 109.651 105.528 109.733 105.542C109.791 105.563 109.903 105.671 110.068 105.867C110.246 106.079 110.341 106.209 110.352 106.255C110.356 106.293 110.317 106.396 110.234 106.563C109.915 107.095 109.891 107.631 110.162 108.169C110.372 108.619 110.691 108.992 111.12 109.287C111.458 109.49 111.763 109.513 112.034 109.355C112.369 109.157 112.463 108.821 112.315 108.346C112.263 108.168 112.111 107.863 111.861 107.432C111.611 107.001 111.477 106.759 111.459 106.704C110.995 105.785 110.941 104.974 111.298 104.271C111.342 104.192 111.391 104.116 111.442 104.045C111.502 103.967 111.61 103.863 111.765 103.733C111.92 103.602 112.026 103.521 112.082 103.488C112.685 103.162 113.294 103.132 113.907 103.398C114.287 103.552 114.654 103.815 115.007 104.187ZM121.967 106.557C122.686 107.347 123.038 107.734 123.024 107.717L123.086 107.791L121.174 109.395L119.25 111.01L119.385 111.022C119.896 111.066 120.367 111.221 120.798 111.486C121.057 111.645 121.263 111.792 121.418 111.926C121.622 112.103 121.863 112.382 122.14 112.762C122.159 112.801 122.179 112.833 122.2 112.858C122.654 113.549 122.745 114.196 122.473 114.801C122.416 114.932 122.302 115.104 122.132 115.316C122.056 115.408 121.482 115.911 120.41 116.824L118.805 118.171L119.165 118.6L119.514 119.017L119.073 119.387L118.632 119.757L118.539 119.647C118.546 119.655 118.318 119.366 117.854 118.781C117.451 118.284 117.04 117.793 116.62 117.31L115.876 116.473L115.783 116.362L116.224 115.992L116.665 115.622L117.025 116.051L117.375 116.467L118.907 115.182C119.969 114.291 120.522 113.82 120.564 113.771C120.946 113.38 121.028 113.013 120.808 112.668C120.76 112.611 120.705 112.545 120.643 112.472C120.29 112.1 119.858 111.892 119.347 111.847C118.986 111.816 118.66 111.867 118.368 112C118.188 112.068 117.816 112.338 117.252 112.811C117.154 112.893 116.982 113.037 116.737 113.243L115.524 114.261L115.884 114.69L116.234 115.107L115.792 115.477L115.351 115.847L115.258 115.737L114.563 114.859C114.16 114.361 113.748 113.871 113.329 113.388C112.833 112.83 112.588 112.554 112.595 112.563L112.502 112.452L112.943 112.082L113.385 111.712L113.745 112.141L114.094 112.558L117.281 109.884C119.406 108.101 120.481 107.184 120.509 107.134C120.57 107.041 120.578 106.943 120.534 106.841C120.471 106.699 120.347 106.518 120.162 106.297L120.028 106.138L120.469 105.767L120.91 105.397L120.941 105.434C120.907 105.393 121.249 105.767 121.967 106.557Z" fill="black"/>
</svg>
