<svg width="190" height="195" viewBox="0 0 190 195" fill="none" xmlns="http://www.w3.org/2000/svg">
<path d="M136.535 106.306C146.512 94.1594 156.463 81.9138 166.475 69.8927C175.977 58.4809 187.158 69.0056 189.312 91.2138C190.559 104.061 187.853 117.939 182.381 124.699C164.441 146.858 146.475 168.93 128.419 190.664C122.831 197.39 117.074 196.153 111.981 187.91C106.808 179.541 105.177 167.997 106.391 154.561C107.776 144.333 110.947 137.495 115.27 132.38C122.42 123.923 129.452 115.02 136.535 106.306Z" fill="#FABC05"/>
<path d="M144.223 97.3269C134.271 85.0861 124.293 72.941 114.376 60.576C104.962 48.8376 103.673 23.0526 111.668 7.99177C116.294 -0.717846 123.317 -2.69152 128.815 3.97376C146.84 25.8255 164.84 47.7699 182.748 70.0456C188.29 76.9401 190.662 88.1274 189.842 101.598C189.009 115.277 185.108 124.041 179.012 128.534C174.14 131.106 169.761 128.703 165.509 123.324C158.478 114.429 151.325 105.969 144.223 97.3269Z" fill="#109D58"/>
<path d="M53.1516 88.8121C46.7654 96.5027 40.3756 104.179 33.996 111.893C30.264 116.406 26.5735 121.072 22.8223 125.51C15.2642 134.452 6.28456 129.21 1.9992 113.46C-2.09059 98.4308 0.25987 78.9453 7.53868 69.9389C25.3357 47.9207 43.1786 26.0627 61.086 4.44958C66.5781 -2.17959 72.2761 -1.34584 77.3548 6.5787C82.715 14.9429 84.4699 26.7127 83.2662 40.5112C82.5195 43.8493 82.0735 47.7637 80.9557 50.3937C79.1371 54.6724 77.0704 58.7689 74.7695 61.7773C67.6492 71.0836 60.3697 79.8418 53.1516 88.8121Z" fill="#E94436"/>
<path d="M45.8293 97.4386C52.1651 105.314 58.4964 113.208 64.8382 121.062C68.5472 125.656 72.2992 130.098 75.9875 134.763C83.4204 144.168 85.7694 163.27 81.4766 179.011C77.3801 194.034 68.2442 199.464 60.9247 190.603C43.0299 168.943 25.1781 147.121 7.39364 125.056C1.93935 118.289 -0.5689 107.412 0.129647 94.1272C0.866713 80.1042 4.79798 70.9989 11.0375 66.3089C12.7746 66.0121 14.5969 64.8722 16.231 65.6101C18.8882 66.8097 21.5957 68.5542 23.975 71.2737C31.3376 79.6897 38.5556 88.6741 45.8293 97.4386Z" fill="#4385F3"/>
<path d="M65.248 86.2V85.048H69.664H74.112L74.24 85.112C74.304 85.1333 76.192 87.4267 79.904 91.992C83.68 96.6427 85.536 98.936 85.472 98.872L85.568 98.968V93.176V87.352H83.84H82.112V86.2V85.048H82.432L84.768 85.112C86.1333 85.1333 87.4987 85.1333 88.864 85.112C90.4 85.0693 91.1787 85.048 91.2 85.048H91.52V86.2V87.352H89.792H88.064V96.952C88.064 103.331 88.0427 106.563 88 106.648C87.9573 106.776 87.872 106.872 87.744 106.936C87.6587 106.979 87.3493 107 86.816 107C86.2827 107 85.9733 106.979 85.888 106.936C85.8453 106.915 83.4027 103.939 78.56 98.008C73.6747 91.928 71.2533 88.9307 71.296 89.016L71.2 88.92V96.792V104.696H72.928H74.656V105.848V107H74.336C74.3573 107 73.5787 106.979 72 106.936C70.6347 106.915 69.2693 106.915 67.904 106.936C66.3253 106.979 65.5467 107 65.568 107H65.248V105.848V104.696H66.976H68.704V96.024V87.352H66.976H65.248V86.2Z" fill="#0085FF"/>
<path d="M94.562 99.366C94.5767 99.3587 94.6427 99.355 94.76 99.355C94.8847 99.3697 94.9653 99.3807 95.002 99.388C95.288 99.476 95.4933 99.6447 95.618 99.894C95.684 100.033 95.717 100.169 95.717 100.301C95.717 100.44 95.684 100.576 95.618 100.708C95.4933 100.965 95.288 101.137 95.002 101.225C94.936 101.24 94.8443 101.247 94.727 101.247C94.6023 101.247 94.5107 101.24 94.452 101.225C94.1587 101.137 93.9497 100.965 93.825 100.708C93.7663 100.591 93.737 100.455 93.737 100.301C93.737 100.198 93.7407 100.125 93.748 100.081C93.7847 99.949 93.8507 99.8243 93.946 99.707C94.1 99.5237 94.3053 99.41 94.562 99.366ZM94.485 102.094C95.2183 102.065 95.5703 102.05 95.541 102.05H95.607V104.129V106.208H95.948H96.289V106.604V107H96.19L95.486 106.978C95.0827 106.971 94.6647 106.971 94.232 106.978L93.484 107H93.385V106.604V106.208H93.77H94.144V104.701C94.144 103.682 94.1403 103.157 94.133 103.128C94.1037 103.04 94.056 102.989 93.99 102.974C93.8873 102.945 93.7407 102.93 93.55 102.93H93.418V102.534V102.138H93.451L94.485 102.094ZM98.2397 100.081V100.015H98.6357H99.0317V101.06V102.116H99.7687H100.506V102.512V102.908H99.7687H99.0317V104.404C99.039 105.438 99.0537 105.988 99.0757 106.054C99.0757 106.061 99.0867 106.083 99.1087 106.12C99.1527 106.208 99.2187 106.274 99.3067 106.318C99.3434 106.333 99.3984 106.34 99.4717 106.34C99.545 106.34 99.5927 106.333 99.6147 106.318C99.732 106.274 99.8237 106.138 99.8897 105.911C99.9044 105.86 99.9154 105.702 99.9227 105.438V105.053H100.319H100.715V105.405C100.715 105.713 100.689 105.94 100.638 106.087C100.557 106.329 100.414 106.538 100.209 106.714C99.9667 106.897 99.7027 107.011 99.4167 107.055C99.3507 107.062 99.237 107.066 99.0757 107.066C98.775 107.059 98.5294 107.015 98.3387 106.934C98.0967 106.853 97.8987 106.707 97.7447 106.494C97.6274 106.333 97.5504 106.124 97.5137 105.867C97.5064 105.83 97.5027 105.321 97.5027 104.338V102.908H97.1287H96.7437V102.578V102.237H96.8427C97.0774 102.215 97.2864 102.134 97.4697 101.995C97.8437 101.702 98.082 101.24 98.1847 100.609C98.2214 100.411 98.2397 100.235 98.2397 100.081Z" fill="#EF2727"/>
<path d="M102.863 99.41C103.596 99.3807 103.955 99.366 103.941 99.366H104.007V101.082V102.809L104.073 102.743C104.322 102.494 104.612 102.314 104.942 102.204C105.14 102.138 105.308 102.094 105.448 102.072C105.631 102.043 105.884 102.039 106.207 102.061C106.236 102.068 106.262 102.072 106.284 102.072C106.848 102.138 107.23 102.376 107.428 102.787C107.472 102.875 107.512 103.011 107.549 103.194C107.563 103.275 107.574 103.799 107.582 104.767V106.208H107.967H108.341V106.604V107H108.242C108.249 107 107.996 106.993 107.483 106.978C107.043 106.971 106.603 106.971 106.163 106.978L105.393 107H105.294V106.604V106.208H105.679H106.053V104.833C106.053 103.88 106.049 103.381 106.042 103.337C106.005 102.963 105.847 102.758 105.569 102.721C105.517 102.721 105.459 102.721 105.393 102.721C105.041 102.743 104.74 102.879 104.491 103.128C104.315 103.304 104.197 103.498 104.139 103.711C104.095 103.836 104.073 104.151 104.073 104.657C104.073 104.745 104.073 104.899 104.073 105.119V106.208H104.458H104.832V106.604V107H104.733L103.963 106.978C103.523 106.971 103.083 106.971 102.643 106.978C102.129 106.993 101.876 107 101.884 107H101.785V106.604V106.208H102.17H102.544V103.348C102.544 101.441 102.536 100.47 102.522 100.433C102.5 100.36 102.452 100.312 102.379 100.29C102.276 100.261 102.126 100.246 101.928 100.246H101.785V99.85V99.454H101.818C101.781 99.454 102.129 99.4393 102.863 99.41ZM110.02 99.366C110.035 99.3587 110.101 99.355 110.218 99.355C110.343 99.3697 110.423 99.3807 110.46 99.388C110.746 99.476 110.951 99.6447 111.076 99.894C111.142 100.033 111.175 100.169 111.175 100.301C111.175 100.44 111.142 100.576 111.076 100.708C110.951 100.965 110.746 101.137 110.46 101.225C110.394 101.24 110.302 101.247 110.185 101.247C110.06 101.247 109.969 101.24 109.91 101.225C109.617 101.137 109.408 100.965 109.283 100.708C109.224 100.591 109.195 100.455 109.195 100.301C109.195 100.198 109.199 100.125 109.206 100.081C109.243 99.949 109.309 99.8243 109.404 99.707C109.558 99.5237 109.763 99.41 110.02 99.366ZM109.943 102.094C110.676 102.065 111.028 102.05 110.999 102.05H111.065V104.129V106.208H111.406H111.747V106.604V107H111.648L110.944 106.978C110.541 106.971 110.123 106.971 109.69 106.978L108.942 107H108.843V106.604V106.208H109.228H109.602V104.701C109.602 103.682 109.598 103.157 109.591 103.128C109.562 103.04 109.514 102.989 109.448 102.974C109.345 102.945 109.199 102.93 109.008 102.93H108.876V102.534V102.138H108.909L109.943 102.094Z" fill="#109D58"/>
<path d="M114.072 102.028H114.765C115.014 102.05 115.223 102.094 115.392 102.16L115.469 102.182L115.667 102.105L115.865 102.017H115.986C116.066 102.017 116.118 102.024 116.14 102.039C116.184 102.068 116.209 102.142 116.217 102.259C116.217 102.325 116.217 102.483 116.217 102.732C116.217 103.15 116.191 103.377 116.14 103.414C116.11 103.429 116.004 103.436 115.821 103.436C115.637 103.436 115.531 103.429 115.502 103.414C115.45 103.377 115.425 103.33 115.425 103.271C115.425 103.044 115.318 102.879 115.106 102.776C114.93 102.688 114.691 102.644 114.391 102.644C114.105 102.644 113.881 102.677 113.72 102.743C113.529 102.824 113.434 102.959 113.434 103.15C113.434 103.179 113.441 103.212 113.456 103.249C113.478 103.344 113.558 103.425 113.698 103.491C113.8 103.55 114.061 103.619 114.479 103.7C114.86 103.766 115.128 103.821 115.282 103.865C115.722 104.019 116.055 104.261 116.283 104.591C116.385 104.76 116.459 104.925 116.503 105.086C116.517 105.159 116.525 105.269 116.525 105.416C116.525 105.57 116.517 105.684 116.503 105.757C116.407 106.27 116.129 106.633 115.667 106.846C115.469 106.941 115.223 107.007 114.93 107.044C114.878 107.051 114.732 107.055 114.49 107.055C114.226 107.055 113.991 107.033 113.786 106.989C113.654 106.952 113.525 106.905 113.401 106.846L113.28 106.791L113.016 106.923L112.741 107.066H112.631C112.543 107.066 112.488 107.059 112.466 107.044C112.422 107.022 112.396 106.956 112.389 106.846C112.389 106.773 112.389 106.564 112.389 106.219C112.389 105.713 112.411 105.442 112.455 105.405C112.491 105.383 112.598 105.372 112.774 105.372C112.964 105.372 113.074 105.379 113.104 105.394C113.126 105.409 113.162 105.475 113.214 105.592C113.353 105.995 113.624 106.245 114.028 106.34C114.358 106.428 114.695 106.424 115.04 106.329C115.296 106.241 115.443 106.091 115.48 105.878C115.524 105.614 115.388 105.416 115.073 105.284C114.955 105.233 114.728 105.178 114.391 105.119C114.053 105.06 113.866 105.024 113.83 105.009C113.14 104.848 112.689 104.518 112.477 104.019C112.455 103.96 112.436 103.902 112.422 103.843C112.407 103.777 112.4 103.674 112.4 103.535C112.4 103.396 112.403 103.304 112.411 103.26C112.506 102.798 112.759 102.464 113.17 102.259C113.419 102.127 113.72 102.05 114.072 102.028ZM118.396 99.41C119.129 99.3807 119.488 99.366 119.474 99.366H119.54V101.082V102.809L119.606 102.743C119.855 102.494 120.145 102.314 120.475 102.204C120.673 102.138 120.841 102.094 120.981 102.072C121.164 102.043 121.417 102.039 121.74 102.061C121.769 102.068 121.795 102.072 121.817 102.072C122.381 102.138 122.763 102.376 122.961 102.787C123.005 102.875 123.045 103.011 123.082 103.194C123.096 103.275 123.107 103.799 123.115 104.767V106.208H123.5H123.874V106.604V107H123.775C123.782 107 123.529 106.993 123.016 106.978C122.576 106.971 122.136 106.971 121.696 106.978L120.926 107H120.827V106.604V106.208H121.212H121.586V104.833C121.586 103.88 121.582 103.381 121.575 103.337C121.538 102.963 121.38 102.758 121.102 102.721C121.05 102.721 120.992 102.721 120.926 102.721C120.574 102.743 120.273 102.879 120.024 103.128C119.848 103.304 119.73 103.498 119.672 103.711C119.628 103.836 119.606 104.151 119.606 104.657C119.606 104.745 119.606 104.899 119.606 105.119V106.208H119.991H120.365V106.604V107H120.266L119.496 106.978C119.056 106.971 118.616 106.971 118.176 106.978C117.662 106.993 117.409 107 117.417 107H117.318V106.604V106.208H117.703H118.077V103.348C118.077 101.441 118.069 100.47 118.055 100.433C118.033 100.36 117.985 100.312 117.912 100.29C117.809 100.261 117.659 100.246 117.461 100.246H117.318V99.85V99.454H117.351C117.314 99.454 117.662 99.4393 118.396 99.41Z" fill="#FABC05"/>
</svg>
